<mxfile host="app.diagrams.net" agent="Mozilla/5.0 (Windows NT 10.0; Win64; x64) AppleWebKit/537.36 (KHTML, like Gecko) Chrome/131.0.0.0 Safari/537.36 Edg/131.0.0.0" version="25.0.3">
  <diagram name="Page-1" id="wbI6PLVD9b1GlbDWB_oB">
    <mxGraphModel dx="1826" dy="1593" grid="1" gridSize="10" guides="1" tooltips="1" connect="1" arrows="1" fold="1" page="0" pageScale="1" pageWidth="827" pageHeight="1169" math="0" shadow="0">
      <root>
        <mxCell id="0" />
        <mxCell id="1" parent="0" />
        <mxCell id="lx40yyld8eNL3qkCeoUG-25" value="Company 01 Network" style="fillColor=none;strokeColor=#147EBA;dashed=1;verticalAlign=top;fontStyle=0;fontColor=#147EBA;whiteSpace=wrap;html=1;" vertex="1" parent="1">
          <mxGeometry x="650" y="-130" width="470" height="270" as="geometry" />
        </mxCell>
        <mxCell id="lx40yyld8eNL3qkCeoUG-38" value="" style="rounded=1;arcSize=10;dashed=1;strokeColor=#F59D56;fillColor=none;gradientColor=none;dashPattern=8 4;strokeWidth=2;" vertex="1" parent="1">
          <mxGeometry x="690" y="-104.25" width="199.5" height="199.5" as="geometry" />
        </mxCell>
        <mxCell id="lx40yyld8eNL3qkCeoUG-3" value="PC-01" style="sketch=0;pointerEvents=1;shadow=0;dashed=0;html=1;strokeColor=none;fillColor=#505050;labelPosition=center;verticalLabelPosition=bottom;verticalAlign=top;outlineConnect=0;align=center;shape=mxgraph.office.devices.workstation_pc;" vertex="1" parent="1">
          <mxGeometry x="800" y="-43.66" width="60" height="66.66" as="geometry" />
        </mxCell>
        <mxCell id="lx40yyld8eNL3qkCeoUG-13" value="Attacker" style="sketch=0;outlineConnect=0;fontColor=#232F3E;gradientColor=none;fillColor=#232F3D;strokeColor=none;dashed=0;verticalLabelPosition=bottom;verticalAlign=top;align=center;html=1;fontSize=12;fontStyle=0;aspect=fixed;pointerEvents=1;shape=mxgraph.aws4.user;" vertex="1" parent="1">
          <mxGeometry x="472.3" y="360" width="78" height="78" as="geometry" />
        </mxCell>
        <mxCell id="lx40yyld8eNL3qkCeoUG-14" value="" style="endArrow=classic;startArrow=classic;html=1;rounded=0;" edge="1" parent="1" source="lx40yyld8eNL3qkCeoUG-13" target="lx40yyld8eNL3qkCeoUG-15">
          <mxGeometry width="50" height="50" relative="1" as="geometry">
            <mxPoint x="567" y="91" as="sourcePoint" />
            <mxPoint x="420" y="60" as="targetPoint" />
          </mxGeometry>
        </mxCell>
        <mxCell id="lx40yyld8eNL3qkCeoUG-15" value="Sliver C2 Server" style="image;points=[];aspect=fixed;html=1;align=center;shadow=0;dashed=0;image=img/lib/allied_telesis/computer_and_terminals/Server_Desktop.svg;" vertex="1" parent="1">
          <mxGeometry x="490" y="-63" width="42.599999999999994" height="54" as="geometry" />
        </mxCell>
        <mxCell id="lx40yyld8eNL3qkCeoUG-39" style="edgeStyle=orthogonalEdgeStyle;rounded=0;orthogonalLoop=1;jettySize=auto;html=1;" edge="1" parent="1" source="lx40yyld8eNL3qkCeoUG-17" target="lx40yyld8eNL3qkCeoUG-37">
          <mxGeometry relative="1" as="geometry">
            <Array as="points">
              <mxPoint x="733" y="-80" />
            </Array>
          </mxGeometry>
        </mxCell>
        <mxCell id="lx40yyld8eNL3qkCeoUG-40" value="Inject" style="edgeLabel;html=1;align=center;verticalAlign=middle;resizable=0;points=[];" vertex="1" connectable="0" parent="lx40yyld8eNL3qkCeoUG-39">
          <mxGeometry x="-0.2132" relative="1" as="geometry">
            <mxPoint y="14" as="offset" />
          </mxGeometry>
        </mxCell>
        <mxCell id="lx40yyld8eNL3qkCeoUG-17" value="Sliver Agent" style="shape=image;html=1;verticalAlign=top;verticalLabelPosition=bottom;labelBackgroundColor=#ffffff;imageAspect=0;aspect=fixed;image=https://cdn4.iconfinder.com/data/icons/crime-and-security-24/64/36-128.png" vertex="1" parent="1">
          <mxGeometry x="710" y="10" width="45" height="45" as="geometry" />
        </mxCell>
        <mxCell id="lx40yyld8eNL3qkCeoUG-20" value="" style="endArrow=classic;startArrow=classic;html=1;rounded=0;entryX=0;entryY=0.5;entryDx=0;entryDy=0;exitX=0.983;exitY=0.516;exitDx=0;exitDy=0;exitPerimeter=0;" edge="1" parent="1" source="lx40yyld8eNL3qkCeoUG-15" target="lx40yyld8eNL3qkCeoUG-17">
          <mxGeometry width="50" height="50" relative="1" as="geometry">
            <mxPoint x="620" y="100" as="sourcePoint" />
            <mxPoint x="670" y="50" as="targetPoint" />
          </mxGeometry>
        </mxCell>
        <mxCell id="lx40yyld8eNL3qkCeoUG-26" value="mTLS" style="edgeLabel;html=1;align=center;verticalAlign=middle;resizable=0;points=[];" vertex="1" connectable="0" parent="lx40yyld8eNL3qkCeoUG-20">
          <mxGeometry x="-0.2742" y="-1" relative="1" as="geometry">
            <mxPoint x="22" y="-1" as="offset" />
          </mxGeometry>
        </mxCell>
        <mxCell id="lx40yyld8eNL3qkCeoUG-27" value="PC-02" style="sketch=0;pointerEvents=1;shadow=0;dashed=0;html=1;strokeColor=none;fillColor=#505050;labelPosition=center;verticalLabelPosition=bottom;verticalAlign=top;outlineConnect=0;align=center;shape=mxgraph.office.devices.workstation_pc;" vertex="1" parent="1">
          <mxGeometry x="1010" y="-110.32" width="60" height="66.66" as="geometry" />
        </mxCell>
        <mxCell id="lx40yyld8eNL3qkCeoUG-29" value="PC-03" style="sketch=0;pointerEvents=1;shadow=0;dashed=0;html=1;strokeColor=none;fillColor=#505050;labelPosition=center;verticalLabelPosition=bottom;verticalAlign=top;outlineConnect=0;align=center;shape=mxgraph.office.devices.workstation_pc;" vertex="1" parent="1">
          <mxGeometry x="1010" y="28.590000000000003" width="60" height="66.66" as="geometry" />
        </mxCell>
        <mxCell id="lx40yyld8eNL3qkCeoUG-31" value="" style="endArrow=classic;startArrow=classic;html=1;rounded=0;" edge="1" parent="1" source="lx40yyld8eNL3qkCeoUG-3" target="lx40yyld8eNL3qkCeoUG-27">
          <mxGeometry width="50" height="50" relative="1" as="geometry">
            <mxPoint x="870" y="90" as="sourcePoint" />
            <mxPoint x="920" y="40" as="targetPoint" />
          </mxGeometry>
        </mxCell>
        <mxCell id="lx40yyld8eNL3qkCeoUG-34" value="" style="endArrow=classic;startArrow=classic;html=1;rounded=0;" edge="1" parent="1" source="lx40yyld8eNL3qkCeoUG-29" target="lx40yyld8eNL3qkCeoUG-3">
          <mxGeometry width="50" height="50" relative="1" as="geometry">
            <mxPoint x="970" y="110" as="sourcePoint" />
            <mxPoint x="970" y="29" as="targetPoint" />
          </mxGeometry>
        </mxCell>
        <mxCell id="lx40yyld8eNL3qkCeoUG-89" value="Lateral movement" style="edgeLabel;html=1;align=center;verticalAlign=middle;resizable=0;points=[];rotation=-15;" vertex="1" connectable="0" parent="lx40yyld8eNL3qkCeoUG-34">
          <mxGeometry x="0.0625" y="4" relative="1" as="geometry">
            <mxPoint x="10" y="-72" as="offset" />
          </mxGeometry>
        </mxCell>
        <mxCell id="lx40yyld8eNL3qkCeoUG-41" style="edgeStyle=orthogonalEdgeStyle;rounded=0;orthogonalLoop=1;jettySize=auto;html=1;" edge="1" parent="1" source="lx40yyld8eNL3qkCeoUG-37" target="lx40yyld8eNL3qkCeoUG-3">
          <mxGeometry relative="1" as="geometry" />
        </mxCell>
        <mxCell id="lx40yyld8eNL3qkCeoUG-37" value="Notepad.exe" style="shape=image;html=1;verticalAlign=top;verticalLabelPosition=bottom;labelBackgroundColor=#ffffff;imageAspect=0;aspect=fixed;image=https://cdn0.iconfinder.com/data/icons/phosphor-regular-vol-3/256/notepad-128.png" vertex="1" parent="1">
          <mxGeometry x="755" y="-100" width="37" height="37" as="geometry" />
        </mxCell>
        <mxCell id="lx40yyld8eNL3qkCeoUG-43" value="Company 02 Network" style="fillColor=none;strokeColor=#147EBA;dashed=1;verticalAlign=top;fontStyle=0;fontColor=#147EBA;whiteSpace=wrap;html=1;" vertex="1" parent="1">
          <mxGeometry x="-20" y="-160" width="371.97" height="270" as="geometry" />
        </mxCell>
        <mxCell id="lx40yyld8eNL3qkCeoUG-44" value="" style="rounded=1;arcSize=10;dashed=1;strokeColor=#F59D56;fillColor=none;gradientColor=none;dashPattern=8 4;strokeWidth=2;" vertex="1" parent="1">
          <mxGeometry x="20.00000000000003" y="-135.75" width="199.5" height="199.5" as="geometry" />
        </mxCell>
        <mxCell id="lx40yyld8eNL3qkCeoUG-45" value="PC-01" style="sketch=0;pointerEvents=1;shadow=0;dashed=0;html=1;strokeColor=none;fillColor=#505050;labelPosition=center;verticalLabelPosition=bottom;verticalAlign=top;outlineConnect=0;align=center;shape=mxgraph.office.devices.workstation_pc;" vertex="1" parent="1">
          <mxGeometry x="260" y="-69.33" width="60" height="66.66" as="geometry" />
        </mxCell>
        <mxCell id="lx40yyld8eNL3qkCeoUG-52" value="" style="endArrow=classic;startArrow=classic;html=1;rounded=0;entryX=0.051;entryY=0.466;entryDx=0;entryDy=0;entryPerimeter=0;" edge="1" parent="1" source="lx40yyld8eNL3qkCeoUG-45" target="lx40yyld8eNL3qkCeoUG-56">
          <mxGeometry width="50" height="50" relative="1" as="geometry">
            <mxPoint x="101.97000000000003" y="60" as="sourcePoint" />
            <mxPoint x="181.97000000000003" y="-84.32999999999981" as="targetPoint" />
          </mxGeometry>
        </mxCell>
        <mxCell id="lx40yyld8eNL3qkCeoUG-53" value="" style="endArrow=classic;startArrow=classic;html=1;rounded=0;" edge="1" parent="1" source="lx40yyld8eNL3qkCeoUG-58" target="lx40yyld8eNL3qkCeoUG-45">
          <mxGeometry width="50" height="50" relative="1" as="geometry">
            <mxPoint x="181.97000000000003" y="7.9340000000001965" as="sourcePoint" />
            <mxPoint x="201.97000000000003" y="-1" as="targetPoint" />
          </mxGeometry>
        </mxCell>
        <mxCell id="lx40yyld8eNL3qkCeoUG-56" value="Server 01" style="image;points=[];aspect=fixed;html=1;align=center;shadow=0;dashed=0;image=img/lib/allied_telesis/computer_and_terminals/Server_Desktop.svg;" vertex="1" parent="1">
          <mxGeometry x="70.66999999999999" y="-114" width="42.599999999999994" height="54" as="geometry" />
        </mxCell>
        <mxCell id="lx40yyld8eNL3qkCeoUG-58" value="Server 02" style="verticalLabelPosition=bottom;html=1;verticalAlign=top;strokeWidth=1;align=center;outlineConnect=0;dashed=0;outlineConnect=0;shape=mxgraph.aws3d.dataServer;strokeColor=#5E5E5E;aspect=fixed;" vertex="1" parent="1">
          <mxGeometry x="60" y="-26" width="78.91" height="68" as="geometry" />
        </mxCell>
        <mxCell id="lx40yyld8eNL3qkCeoUG-59" value="DNS Resolver" style="verticalLabelPosition=bottom;sketch=0;aspect=fixed;html=1;verticalAlign=top;strokeColor=none;align=center;outlineConnect=0;shape=mxgraph.citrix.dns_server;" vertex="1" parent="1">
          <mxGeometry x="573.5" y="-391.25" width="76.5" height="92.5" as="geometry" />
        </mxCell>
        <mxCell id="lx40yyld8eNL3qkCeoUG-61" value="" style="endArrow=classic;startArrow=classic;html=1;rounded=0;" edge="1" parent="1" source="lx40yyld8eNL3qkCeoUG-15" target="lx40yyld8eNL3qkCeoUG-59">
          <mxGeometry width="50" height="50" relative="1" as="geometry">
            <mxPoint x="490" y="-150" as="sourcePoint" />
            <mxPoint x="540" y="-200" as="targetPoint" />
          </mxGeometry>
        </mxCell>
        <mxCell id="lx40yyld8eNL3qkCeoUG-84" value="DNS" style="edgeLabel;html=1;align=center;verticalAlign=middle;resizable=0;points=[];" vertex="1" connectable="0" parent="lx40yyld8eNL3qkCeoUG-61">
          <mxGeometry x="-0.0056" y="1" relative="1" as="geometry">
            <mxPoint as="offset" />
          </mxGeometry>
        </mxCell>
        <mxCell id="lx40yyld8eNL3qkCeoUG-76" value="Company 03 Network" style="fillColor=none;strokeColor=#147EBA;dashed=1;verticalAlign=top;fontStyle=0;fontColor=#147EBA;whiteSpace=wrap;html=1;" vertex="1" parent="1">
          <mxGeometry x="780" y="-480" width="371.97" height="270" as="geometry" />
        </mxCell>
        <mxCell id="lx40yyld8eNL3qkCeoUG-77" value="" style="rounded=1;arcSize=10;dashed=1;strokeColor=#F59D56;fillColor=none;gradientColor=none;dashPattern=8 4;strokeWidth=2;" vertex="1" parent="1">
          <mxGeometry x="912.22" y="-455.75" width="199.5" height="199.5" as="geometry" />
        </mxCell>
        <mxCell id="lx40yyld8eNL3qkCeoUG-78" value="PC-01" style="sketch=0;pointerEvents=1;shadow=0;dashed=0;html=1;strokeColor=none;fillColor=#505050;labelPosition=center;verticalLabelPosition=bottom;verticalAlign=top;outlineConnect=0;align=center;shape=mxgraph.office.devices.workstation_pc;" vertex="1" parent="1">
          <mxGeometry x="820" y="-395.65999999999997" width="60" height="66.66" as="geometry" />
        </mxCell>
        <mxCell id="lx40yyld8eNL3qkCeoUG-79" value="" style="endArrow=classic;startArrow=classic;html=1;rounded=0;entryX=0.051;entryY=0.466;entryDx=0;entryDy=0;entryPerimeter=0;" edge="1" parent="1" source="lx40yyld8eNL3qkCeoUG-78" target="lx40yyld8eNL3qkCeoUG-81">
          <mxGeometry width="50" height="50" relative="1" as="geometry">
            <mxPoint x="901.97" y="-260" as="sourcePoint" />
            <mxPoint x="981.97" y="-404.3299999999998" as="targetPoint" />
          </mxGeometry>
        </mxCell>
        <mxCell id="lx40yyld8eNL3qkCeoUG-80" value="" style="endArrow=classic;startArrow=classic;html=1;rounded=0;" edge="1" parent="1" source="lx40yyld8eNL3qkCeoUG-82" target="lx40yyld8eNL3qkCeoUG-78">
          <mxGeometry width="50" height="50" relative="1" as="geometry">
            <mxPoint x="981.97" y="-312.0659999999998" as="sourcePoint" />
            <mxPoint x="1001.97" y="-321" as="targetPoint" />
          </mxGeometry>
        </mxCell>
        <mxCell id="lx40yyld8eNL3qkCeoUG-81" value="Server 01" style="image;points=[];aspect=fixed;html=1;align=center;shadow=0;dashed=0;image=img/lib/allied_telesis/computer_and_terminals/Server_Desktop.svg;" vertex="1" parent="1">
          <mxGeometry x="990.67" y="-440" width="42.599999999999994" height="54" as="geometry" />
        </mxCell>
        <mxCell id="lx40yyld8eNL3qkCeoUG-82" value="Server 02" style="verticalLabelPosition=bottom;html=1;verticalAlign=top;strokeWidth=1;align=center;outlineConnect=0;dashed=0;outlineConnect=0;shape=mxgraph.aws3d.dataServer;strokeColor=#5E5E5E;aspect=fixed;" vertex="1" parent="1">
          <mxGeometry x="980" y="-349" width="78.91" height="68" as="geometry" />
        </mxCell>
        <mxCell id="lx40yyld8eNL3qkCeoUG-83" value="" style="endArrow=classic;startArrow=classic;html=1;rounded=0;" edge="1" parent="1" source="lx40yyld8eNL3qkCeoUG-59" target="lx40yyld8eNL3qkCeoUG-78">
          <mxGeometry width="50" height="50" relative="1" as="geometry">
            <mxPoint x="528" y="-53" as="sourcePoint" />
            <mxPoint x="577" y="-257" as="targetPoint" />
          </mxGeometry>
        </mxCell>
        <mxCell id="lx40yyld8eNL3qkCeoUG-85" value="DNS" style="edgeLabel;html=1;align=center;verticalAlign=middle;resizable=0;points=[];" vertex="1" connectable="0" parent="lx40yyld8eNL3qkCeoUG-83">
          <mxGeometry x="0.017" relative="1" as="geometry">
            <mxPoint as="offset" />
          </mxGeometry>
        </mxCell>
        <mxCell id="lx40yyld8eNL3qkCeoUG-88" value="" style="endArrow=classic;startArrow=classic;html=1;rounded=0;entryX=-0.012;entryY=0.531;entryDx=0;entryDy=0;entryPerimeter=0;" edge="1" parent="1" source="lx40yyld8eNL3qkCeoUG-45" target="lx40yyld8eNL3qkCeoUG-15">
          <mxGeometry width="50" height="50" relative="1" as="geometry">
            <mxPoint x="420" y="10" as="sourcePoint" />
            <mxPoint x="470" y="-40" as="targetPoint" />
          </mxGeometry>
        </mxCell>
        <mxCell id="lx40yyld8eNL3qkCeoUG-95" value="HTTP(S)" style="edgeLabel;html=1;align=center;verticalAlign=middle;resizable=0;points=[];" vertex="1" connectable="0" parent="lx40yyld8eNL3qkCeoUG-88">
          <mxGeometry x="-0.1508" y="4" relative="1" as="geometry">
            <mxPoint as="offset" />
          </mxGeometry>
        </mxCell>
        <mxCell id="lx40yyld8eNL3qkCeoUG-92" value="Lateral movement" style="edgeLabel;html=1;align=center;verticalAlign=middle;resizable=0;points=[];rotation=20;" vertex="1" connectable="0" parent="1">
          <mxGeometry x="949.9982701852014" y="50.003130232655124" as="geometry">
            <mxPoint x="-23.841237849850824" y="-15.798587841539526" as="offset" />
          </mxGeometry>
        </mxCell>
      </root>
    </mxGraphModel>
  </diagram>
</mxfile>
